<?xml version="1.0" encoding="UTF-8" standalone="no"?>
<!DOCTYPE svg PUBLIC "-//W3C//DTD SVG 1.1//EN"
 "http://www.w3.org/Graphics/SVG/1.1/DTD/svg11.dtd">
<!-- Generated by graphviz version 2.40.1 (20161225.0304)
 -->
<!-- Title: a&#45;main.c.017t.ompexp Pages: 1 -->
<svg width="776pt" height="1328pt"
 viewBox="0.00 0.00 776.36 1328.00" xmlns="http://www.w3.org/2000/svg" xmlns:xlink="http://www.w3.org/1999/xlink">
<g id="graph0" class="graph" transform="scale(1 1) rotate(0) translate(4 1324)">
<title>a&#45;main.c.017t.ompexp</title>
<polygon fill="#ffffff" stroke="transparent" points="-4,4 -4,-1324 772.356,-1324 772.356,4 -4,4"/>
<g id="clust1" class="cluster">
<title>cluster_main</title>
<polygon fill="none" stroke="#000000" stroke-dasharray="5,2" points="12.356,-8 12.356,-1312 760.356,-1312 760.356,-8 12.356,-8"/>
<text text-anchor="middle" x="386.356" y="-1295.4" font-family="Times,serif" font-size="14.00" fill="#000000">main ()</text>
</g>
<g id="clust2" class="cluster">
<title>cluster_0_1</title>
<polygon fill="#e0e0e0" stroke="#006400" stroke-width="2" points="193.356,-543 193.356,-833.8 343.356,-833.8 343.356,-543 193.356,-543"/>
<text text-anchor="middle" x="219.0513" y="-817.2" font-family="Times,serif" font-size="14.00" fill="#000000">loop 1</text>
</g>
<!-- fn_0_basic_block_6 -->
<g id="node1" class="node">
<title>fn_0_basic_block_6</title>
<polygon fill="#d3d3d3" stroke="#000000" points="201.7233,-675.7 201.7233,-800.5 334.9887,-800.5 334.9887,-675.7 201.7233,-675.7"/>
<text text-anchor="start" x="209.7233" y="-783.9" font-family="Times,serif" font-size="14.00" fill="#000000">&lt;bb 6&gt;:</text>
<polyline fill="none" stroke="#000000" points="201.7233,-775.7 334.9887,-775.7 "/>
<text text-anchor="start" x="209.7233" y="-759.1" font-family="Times,serif" font-size="14.00" fill="#000000">n.0_1 = n;</text>
<polyline fill="none" stroke="#000000" points="201.7233,-750.9 334.9887,-750.9 "/>
<text text-anchor="start" x="209.7233" y="-734.3" font-family="Times,serif" font-size="14.00" fill="#000000">if (i &lt;= n.0_1)</text>
<text text-anchor="start" x="209.7233" y="-717.5" font-family="Times,serif" font-size="14.00" fill="#000000"> &#160;goto &lt;bb 5&gt;; [INV]</text>
<text text-anchor="start" x="209.7233" y="-700.7" font-family="Times,serif" font-size="14.00" fill="#000000">else</text>
<text text-anchor="start" x="209.7233" y="-683.9" font-family="Times,serif" font-size="14.00" fill="#000000"> &#160;goto &lt;bb 7&gt;; [INV]</text>
</g>
<!-- fn_0_basic_block_5 -->
<g id="node2" class="node">
<title>fn_0_basic_block_5</title>
<polygon fill="#d3d3d3" stroke="#000000" points="236.1255,-551.5 236.1255,-625.9 300.5865,-625.9 300.5865,-551.5 236.1255,-551.5"/>
<text text-anchor="start" x="244.1255" y="-609.3" font-family="Times,serif" font-size="14.00" fill="#000000">&lt;bb 5&gt;:</text>
<polyline fill="none" stroke="#000000" points="236.1255,-601.1 300.5865,-601.1 "/>
<text text-anchor="start" x="244.1255" y="-584.5" font-family="Times,serif" font-size="14.00" fill="#000000">f = f * i;</text>
<polyline fill="none" stroke="#000000" points="236.1255,-576.3 300.5865,-576.3 "/>
<text text-anchor="start" x="244.1255" y="-559.7" font-family="Times,serif" font-size="14.00" fill="#000000">i = i + 1;</text>
</g>
<!-- fn_0_basic_block_6&#45;&gt;fn_0_basic_block_5 -->
<g id="edge7" class="edge">
<title>fn_0_basic_block_6:s&#45;&gt;fn_0_basic_block_5:n</title>
<path fill="none" stroke="#000000" stroke-width="2" d="M268.356,-676.1C268.356,-657.55 268.356,-650.5213 268.356,-635.9317"/>
<polygon fill="#000000" stroke="#000000" stroke-width="2" points="271.8561,-635.7 268.356,-625.7 264.8561,-635.7 271.8561,-635.7"/>
</g>
<!-- fn_0_basic_block_7 -->
<g id="node8" class="node">
<title>fn_0_basic_block_7</title>
<polygon fill="#d3d3d3" stroke="#000000" points="51.7233,-538.7 51.7233,-638.7 184.9887,-638.7 184.9887,-538.7 51.7233,-538.7"/>
<text text-anchor="start" x="59.7233" y="-622.1" font-family="Times,serif" font-size="14.00" fill="#000000">&lt;bb 7&gt;:</text>
<polyline fill="none" stroke="#000000" points="51.7233,-613.9 184.9887,-613.9 "/>
<text text-anchor="start" x="59.7233" y="-597.3" font-family="Times,serif" font-size="14.00" fill="#000000">if (f &gt; 10000)</text>
<text text-anchor="start" x="59.7233" y="-580.5" font-family="Times,serif" font-size="14.00" fill="#000000"> &#160;goto &lt;bb 8&gt;; [INV]</text>
<text text-anchor="start" x="59.7233" y="-563.7" font-family="Times,serif" font-size="14.00" fill="#000000">else</text>
<text text-anchor="start" x="59.7233" y="-546.9" font-family="Times,serif" font-size="14.00" fill="#000000"> &#160;goto &lt;bb 9&gt;; [INV]</text>
</g>
<!-- fn_0_basic_block_6&#45;&gt;fn_0_basic_block_7 -->
<g id="edge8" class="edge">
<title>fn_0_basic_block_6:s&#45;&gt;fn_0_basic_block_7:n</title>
<path fill="none" stroke="#000000" stroke-width="2" d="M268.356,-676.1C268.356,-611.284 134.8669,-696.6191 119.7451,-648.8124"/>
<polygon fill="#000000" stroke="#000000" stroke-width="2" points="123.1844,-648.1306 118.356,-638.7 116.2495,-649.0833 123.1844,-648.1306"/>
</g>
<!-- fn_0_basic_block_5&#45;&gt;fn_0_basic_block_6 -->
<g id="edge6" class="edge">
<title>fn_0_basic_block_5:s&#45;&gt;fn_0_basic_block_6:n</title>
<path fill="none" stroke="#0000ff" stroke-width="2" stroke-dasharray="1,5" d="M268.356,-551.7C268.356,-537.3753 289.179,-543.0359 300.5865,-551.7 345.9614,-586.1628 327.2727,-618.7462 334.9887,-675.2 334.9887,-675.2 288.4263,-762.4791 273.148,-791.1175"/>
<polygon fill="#0000ff" stroke="#0000ff" stroke-width="2" points="269.9749,-789.6296 268.356,-800.1 276.151,-792.9245 269.9749,-789.6296"/>
</g>
<!-- fn_0_basic_block_0 -->
<g id="node3" class="node">
<title>fn_0_basic_block_0</title>
<polygon fill="#ffffff" stroke="#000000" points="107.356,-1279.2 46.116,-1261.2 107.356,-1243.2 168.5959,-1261.2 107.356,-1279.2"/>
<polyline fill="none" stroke="#000000" points="57.629,-1264.584 57.629,-1257.816 "/>
<polyline fill="none" stroke="#000000" points="95.843,-1246.584 118.8689,-1246.584 "/>
<polyline fill="none" stroke="#000000" points="157.083,-1257.816 157.083,-1264.584 "/>
<polyline fill="none" stroke="#000000" points="118.8689,-1275.816 95.843,-1275.816 "/>
<text text-anchor="middle" x="107.356" y="-1257" font-family="Times,serif" font-size="14.00" fill="#000000">ENTRY</text>
</g>
<!-- fn_0_basic_block_1 -->
<g id="node4" class="node">
<title>fn_0_basic_block_1</title>
<polygon fill="#ffffff" stroke="#000000" points="396.356,-52 349.4562,-34 396.356,-16 443.2557,-34 396.356,-52"/>
<polyline fill="none" stroke="#000000" points="360.6594,-38.2998 360.6594,-29.7002 "/>
<polyline fill="none" stroke="#000000" points="385.1527,-20.2998 407.5592,-20.2998 "/>
<polyline fill="none" stroke="#000000" points="432.0525,-29.7002 432.0525,-38.2998 "/>
<polyline fill="none" stroke="#000000" points="407.5592,-47.7002 385.1527,-47.7002 "/>
<text text-anchor="middle" x="396.356" y="-29.8" font-family="Times,serif" font-size="14.00" fill="#000000">EXIT</text>
</g>
<!-- fn_0_basic_block_0&#45;&gt;fn_0_basic_block_1 -->
<!-- fn_0_basic_block_2 -->
<g id="node5" class="node">
<title>fn_0_basic_block_2</title>
<polygon fill="#d3d3d3" stroke="#000000" points="40.7233,-1007.5 40.7233,-1206.7 173.9887,-1206.7 173.9887,-1007.5 40.7233,-1007.5"/>
<text text-anchor="start" x="48.7233" y="-1190.1" font-family="Times,serif" font-size="14.00" fill="#000000">&lt;bb 2&gt;:</text>
<polyline fill="none" stroke="#000000" points="40.7233,-1181.9 173.9887,-1181.9 "/>
<text text-anchor="start" x="48.7233" y="-1165.3" font-family="Times,serif" font-size="14.00" fill="#000000">scanf (&quot;%d&quot;, &amp;n);</text>
<polyline fill="none" stroke="#000000" points="40.7233,-1157.1 173.9887,-1157.1 "/>
<text text-anchor="start" x="48.7233" y="-1140.5" font-family="Times,serif" font-size="14.00" fill="#000000">i = 2;</text>
<polyline fill="none" stroke="#000000" points="40.7233,-1132.3 173.9887,-1132.3 "/>
<text text-anchor="start" x="48.7233" y="-1115.7" font-family="Times,serif" font-size="14.00" fill="#000000">f = 1;</text>
<polyline fill="none" stroke="#000000" points="40.7233,-1107.5 173.9887,-1107.5 "/>
<text text-anchor="start" x="48.7233" y="-1090.9" font-family="Times,serif" font-size="14.00" fill="#000000">start = clock ();</text>
<polyline fill="none" stroke="#000000" points="40.7233,-1082.7 173.9887,-1082.7 "/>
<text text-anchor="start" x="48.7233" y="-1066.1" font-family="Times,serif" font-size="14.00" fill="#000000">if (i &lt;= 0)</text>
<text text-anchor="start" x="48.7233" y="-1049.3" font-family="Times,serif" font-size="14.00" fill="#000000"> &#160;goto &lt;bb 3&gt;; [INV]</text>
<text text-anchor="start" x="48.7233" y="-1032.5" font-family="Times,serif" font-size="14.00" fill="#000000">else</text>
<text text-anchor="start" x="48.7233" y="-1015.7" font-family="Times,serif" font-size="14.00" fill="#000000"> &#160;goto &lt;bb 4&gt;; [INV]</text>
</g>
<!-- fn_0_basic_block_0&#45;&gt;fn_0_basic_block_2 -->
<g id="edge1" class="edge">
<title>fn_0_basic_block_0:s&#45;&gt;fn_0_basic_block_2:n</title>
<path fill="none" stroke="#0000ff" stroke-width="2" d="M107.356,-1243.2C107.356,-1231.1667 107.356,-1225.9021 107.356,-1217.2531"/>
<polygon fill="#0000ff" stroke="#0000ff" stroke-width="2" points="110.8561,-1217.1 107.356,-1207.1 103.8561,-1217.1 110.8561,-1217.1"/>
</g>
<!-- fn_0_basic_block_3 -->
<g id="node6" class="node">
<title>fn_0_basic_block_3</title>
<polygon fill="#d3d3d3" stroke="#000000" points="114.8582,-920.9 114.8582,-970.5 421.8538,-970.5 421.8538,-920.9 114.8582,-920.9"/>
<text text-anchor="start" x="122.8582" y="-953.9" font-family="Times,serif" font-size="14.00" fill="#000000">&lt;bb 3&gt;:</text>
<polyline fill="none" stroke="#000000" points="114.8582,-945.7 421.8538,-945.7 "/>
<text text-anchor="start" x="122.8582" y="-929.1" font-family="Times,serif" font-size="14.00" fill="#000000">__builtin_puts (&amp;&quot;i\xe5\xb0\x8f\xe4\xba\x8e1&quot;[0]);</text>
</g>
<!-- fn_0_basic_block_2&#45;&gt;fn_0_basic_block_3 -->
<g id="edge2" class="edge">
<title>fn_0_basic_block_2:s&#45;&gt;fn_0_basic_block_3:n</title>
<path fill="none" stroke="#000000" stroke-width="2" d="M107.356,-1007.1C107.356,-937.6071 251.8232,-1032.9367 267.06,-980.8275"/>
<polygon fill="#000000" stroke="#000000" stroke-width="2" points="270.5583,-981.0634 268.356,-970.7 263.6149,-980.1748 270.5583,-981.0634"/>
</g>
<!-- fn_0_basic_block_4 -->
<g id="node7" class="node">
<title>fn_0_basic_block_4</title>
<polygon fill="#d3d3d3" stroke="#000000" points="205.2233,-842.3 205.2233,-883.9 331.4887,-883.9 331.4887,-842.3 205.2233,-842.3"/>
<text text-anchor="start" x="213.2233" y="-867.3" font-family="Times,serif" font-size="14.00" fill="#000000">&lt;bb 4&gt;:</text>
<text text-anchor="start" x="213.2233" y="-850.5" font-family="Times,serif" font-size="14.00" fill="#000000">goto &lt;bb 6&gt;; [INV]</text>
</g>
<!-- fn_0_basic_block_2&#45;&gt;fn_0_basic_block_4 -->
<g id="edge3" class="edge">
<title>fn_0_basic_block_2:s&#45;&gt;fn_0_basic_block_4:n</title>
<path fill="none" stroke="#000000" stroke-width="2" d="M107.356,-1007.1C107.356,-968.5641 82.2695,-950.4809 106.356,-920.4 150.1328,-865.7284 256.7667,-948.6224 267.4838,-894.0765"/>
<polygon fill="#000000" stroke="#000000" stroke-width="2" points="270.9717,-894.3669 268.356,-884.1 263.9983,-893.7572 270.9717,-894.3669"/>
</g>
<!-- fn_0_basic_block_3&#45;&gt;fn_0_basic_block_4 -->
<g id="edge4" class="edge">
<title>fn_0_basic_block_3:s&#45;&gt;fn_0_basic_block_4:n</title>
<path fill="none" stroke="#0000ff" stroke-width="2" d="M268.356,-920.7C268.356,-908.3729 268.356,-903.052 268.356,-894.1186"/>
<polygon fill="#0000ff" stroke="#0000ff" stroke-width="2" points="271.8561,-894.1 268.356,-884.1 264.8561,-894.1 271.8561,-894.1"/>
</g>
<!-- fn_0_basic_block_4&#45;&gt;fn_0_basic_block_6 -->
<g id="edge5" class="edge">
<title>fn_0_basic_block_4:s&#45;&gt;fn_0_basic_block_6:n</title>
<path fill="none" stroke="#0000ff" stroke-width="2" d="M268.356,-842.1C268.356,-827.3708 268.356,-821.3583 268.356,-810.3065"/>
<polygon fill="#0000ff" stroke="#0000ff" stroke-width="2" points="271.8561,-810.1 268.356,-800.1 264.8561,-810.1 271.8561,-810.1"/>
</g>
<!-- fn_0_basic_block_8 -->
<g id="node9" class="node">
<title>fn_0_basic_block_8</title>
<polygon fill="#d3d3d3" stroke="#000000" points="184.2474,-435.3 184.2474,-501.7 630.4646,-501.7 630.4646,-435.3 184.2474,-435.3"/>
<text text-anchor="start" x="192.2474" y="-485.1" font-family="Times,serif" font-size="14.00" fill="#000000">&lt;bb 8&gt;:</text>
<polyline fill="none" stroke="#000000" points="184.2474,-476.9 630.4646,-476.9 "/>
<text text-anchor="start" x="192.2474" y="-460.3" font-family="Times,serif" font-size="14.00" fill="#000000">__builtin_puts (&amp;&quot;\xe8\xbe\x93\xe5\x87\xba\xe8\xb6\x85\xe9\x99\x90&quot;[0]);</text>
<text text-anchor="start" x="192.2474" y="-443.5" font-family="Times,serif" font-size="14.00" fill="#000000">goto &lt;bb 10&gt;; [INV]</text>
</g>
<!-- fn_0_basic_block_7&#45;&gt;fn_0_basic_block_8 -->
<g id="edge9" class="edge">
<title>fn_0_basic_block_7:s&#45;&gt;fn_0_basic_block_8:n</title>
<path fill="none" stroke="#000000" stroke-width="2" d="M118.356,-538.7C118.356,-477.742 374.481,-555.9744 404.4956,-511.3278"/>
<polygon fill="#000000" stroke="#000000" stroke-width="2" points="407.9219,-512.0797 407.356,-501.5 401.2008,-510.1235 407.9219,-512.0797"/>
</g>
<!-- fn_0_basic_block_9 -->
<g id="node10" class="node">
<title>fn_0_basic_block_9</title>
<polygon fill="#d3d3d3" stroke="#000000" points="50.1324,-443.7 50.1324,-493.3 166.5796,-493.3 166.5796,-443.7 50.1324,-443.7"/>
<text text-anchor="start" x="58.1324" y="-476.7" font-family="Times,serif" font-size="14.00" fill="#000000">&lt;bb 9&gt;:</text>
<polyline fill="none" stroke="#000000" points="50.1324,-468.5 166.5796,-468.5 "/>
<text text-anchor="start" x="58.1324" y="-451.9" font-family="Times,serif" font-size="14.00" fill="#000000">printf (&quot;%d\n&quot;, f);</text>
</g>
<!-- fn_0_basic_block_7&#45;&gt;fn_0_basic_block_9 -->
<g id="edge10" class="edge">
<title>fn_0_basic_block_7:s&#45;&gt;fn_0_basic_block_9:n</title>
<path fill="none" stroke="#000000" stroke-width="2" d="M118.356,-538.7C118.356,-521.9831 111.7544,-516.1746 109.2788,-503.5483"/>
<polygon fill="#000000" stroke="#000000" stroke-width="2" points="112.7559,-503.138 108.356,-493.5 105.7853,-503.7782 112.7559,-503.138"/>
</g>
<!-- fn_0_basic_block_10 -->
<g id="node11" class="node">
<title>fn_0_basic_block_10</title>
<polygon fill="#d3d3d3" stroke="#000000" points="39.9016,-199.9 39.9016,-398.3 752.8104,-398.3 752.8104,-199.9 39.9016,-199.9"/>
<text text-anchor="start" x="47.9016" y="-381.7" font-family="Times,serif" font-size="14.00" fill="#000000">&lt;bb 10&gt;:</text>
<polyline fill="none" stroke="#000000" points="39.9016,-373.5 752.8104,-373.5 "/>
<text text-anchor="start" x="47.9016" y="-356.9" font-family="Times,serif" font-size="14.00" fill="#000000">end = clock ();</text>
<polyline fill="none" stroke="#000000" points="39.9016,-348.7 752.8104,-348.7 "/>
<text text-anchor="start" x="47.9016" y="-332.1" font-family="Times,serif" font-size="14.00" fill="#000000">_2 = end &#45; start;</text>
<polyline fill="none" stroke="#000000" points="39.9016,-323.9 752.8104,-323.9 "/>
<text text-anchor="start" x="47.9016" y="-307.3" font-family="Times,serif" font-size="14.00" fill="#000000">_3 = (double) _2;</text>
<polyline fill="none" stroke="#000000" points="39.9016,-299.1 752.8104,-299.1 "/>
<text text-anchor="start" x="47.9016" y="-282.5" font-family="Times,serif" font-size="14.00" fill="#000000">time = _3 / 1.0e+6;</text>
<polyline fill="none" stroke="#000000" points="39.9016,-274.3 752.8104,-274.3 "/>
<text text-anchor="start" x="47.9016" y="-257.7" font-family="Times,serif" font-size="14.00" fill="#000000">printf (&quot;\xe7\xa8\x8b\xe5\xba\x8f\xe8\xbf\x90\xe8\xa1\x8c\xe6\x97\xb6\xe9\x97\xb4\xe4\xb8\xba\xef\xbc\x9a%f\n&quot;, time);</text>
<polyline fill="none" stroke="#000000" points="39.9016,-249.5 752.8104,-249.5 "/>
<text text-anchor="start" x="47.9016" y="-232.9" font-family="Times,serif" font-size="14.00" fill="#000000">D.2487 = 0;</text>
<polyline fill="none" stroke="#000000" points="39.9016,-224.7 752.8104,-224.7 "/>
<text text-anchor="start" x="47.9016" y="-208.1" font-family="Times,serif" font-size="14.00" fill="#000000">n = {CLOBBER};</text>
</g>
<!-- fn_0_basic_block_8&#45;&gt;fn_0_basic_block_10 -->
<g id="edge11" class="edge">
<title>fn_0_basic_block_8:s&#45;&gt;fn_0_basic_block_10:n</title>
<path fill="none" stroke="#0000ff" stroke-width="2" d="M407.356,-435.5C407.356,-422.2346 400.908,-417.515 397.8855,-408.2554"/>
<polygon fill="#0000ff" stroke="#0000ff" stroke-width="2" points="401.3063,-407.4672 396.356,-398.1 394.3844,-408.5098 401.3063,-407.4672"/>
</g>
<!-- fn_0_basic_block_9&#45;&gt;fn_0_basic_block_10 -->
<g id="edge12" class="edge">
<title>fn_0_basic_block_9:s&#45;&gt;fn_0_basic_block_10:n</title>
<path fill="none" stroke="#0000ff" stroke-width="2" d="M108.356,-443.5C108.356,-382.506 363.5947,-453.5369 393.5055,-408.0145"/>
<polygon fill="#0000ff" stroke="#0000ff" stroke-width="2" points="396.9565,-408.6778 396.356,-398.1 390.2291,-406.7436 396.9565,-408.6778"/>
</g>
<!-- fn_0_basic_block_11 -->
<g id="node12" class="node">
<title>fn_0_basic_block_11</title>
<polygon fill="#d3d3d3" stroke="#000000" points="347.1442,-88.5 347.1442,-162.9 445.5678,-162.9 445.5678,-88.5 347.1442,-88.5"/>
<text text-anchor="start" x="355.1442" y="-146.3" font-family="Times,serif" font-size="14.00" fill="#000000">&lt;bb 11&gt;:</text>
<polyline fill="none" stroke="#000000" points="347.1442,-138.1 445.5678,-138.1 "/>
<text text-anchor="start" x="355.1442" y="-121.5" font-family="Times,serif" font-size="14.00" fill="#000000">&lt;L9&gt;:</text>
<polyline fill="none" stroke="#000000" points="347.1442,-113.3 445.5678,-113.3 "/>
<text text-anchor="start" x="355.1442" y="-96.7" font-family="Times,serif" font-size="14.00" fill="#000000">return D.2487;</text>
</g>
<!-- fn_0_basic_block_10&#45;&gt;fn_0_basic_block_11 -->
<g id="edge13" class="edge">
<title>fn_0_basic_block_10:s&#45;&gt;fn_0_basic_block_11:n</title>
<path fill="none" stroke="#0000ff" stroke-width="2" d="M396.356,-200.1C396.356,-187.5035 396.356,-182.0663 396.356,-172.9376"/>
<polygon fill="#0000ff" stroke="#0000ff" stroke-width="2" points="399.8561,-172.7 396.356,-162.7 392.8561,-172.7 399.8561,-172.7"/>
</g>
<!-- fn_0_basic_block_11&#45;&gt;fn_0_basic_block_1 -->
<g id="edge14" class="edge">
<title>fn_0_basic_block_11:s&#45;&gt;fn_0_basic_block_1:n</title>
<path fill="none" stroke="#000000" stroke-width="2" d="M396.356,-88.7C396.356,-76.3392 396.356,-71.0038 396.356,-62.046"/>
<polygon fill="#000000" stroke="#000000" stroke-width="2" points="399.8561,-62 396.356,-52 392.8561,-62 399.8561,-62"/>
</g>
</g>
</svg>
