<?xml version="1.0" encoding="UTF-8" standalone="no"?>
<!DOCTYPE svg PUBLIC "-//W3C//DTD SVG 1.1//EN"
 "http://www.w3.org/Graphics/SVG/1.1/DTD/svg11.dtd">
<!-- Generated by graphviz version 2.40.1 (20161225.0304)
 -->
<!-- Title: a&#45;main.c.027t.fixup_cfg2 Pages: 1 -->
<svg width="794pt" height="1378pt"
 viewBox="0.00 0.00 794.49 1377.60" xmlns="http://www.w3.org/2000/svg" xmlns:xlink="http://www.w3.org/1999/xlink">
<g id="graph0" class="graph" transform="scale(1 1) rotate(0) translate(4 1373.6)">
<title>a&#45;main.c.027t.fixup_cfg2</title>
<polygon fill="#ffffff" stroke="transparent" points="-4,4 -4,-1373.6 790.4946,-1373.6 790.4946,4 -4,4"/>
<g id="clust1" class="cluster">
<title>cluster_main</title>
<polygon fill="none" stroke="#000000" stroke-dasharray="5,2" points="8.4946,-8 8.4946,-1361.6 778.4946,-1361.6 778.4946,-8 8.4946,-8"/>
<text text-anchor="middle" x="393.4946" y="-1345" font-family="Times,serif" font-size="14.00" fill="#000000">main ()</text>
</g>
<g id="clust2" class="cluster">
<title>cluster_0_1</title>
<polygon fill="#e0e0e0" stroke="#006400" stroke-width="2" points="178.4946,-543 178.4946,-883.4 386.4946,-883.4 386.4946,-543 178.4946,-543"/>
<text text-anchor="middle" x="204.1899" y="-866.8" font-family="Times,serif" font-size="14.00" fill="#000000">loop 1</text>
</g>
<!-- fn_0_basic_block_6 -->
<g id="node1" class="node">
<title>fn_0_basic_block_6</title>
<polygon fill="#d3d3d3" stroke="#000000" points="186.0657,-675.7 186.0657,-850.1 378.9235,-850.1 378.9235,-675.7 186.0657,-675.7"/>
<text text-anchor="start" x="194.0657" y="-833.5" font-family="Times,serif" font-size="14.00" fill="#000000">&lt;bb 6&gt;:</text>
<polyline fill="none" stroke="#000000" points="186.0657,-825.3 378.9235,-825.3 "/>
<text text-anchor="start" x="194.0657" y="-808.7" font-family="Times,serif" font-size="14.00" fill="#000000"># i_4 = PHI &lt;i_10(4), i_24(5)&gt;</text>
<polyline fill="none" stroke="#000000" points="186.0657,-800.5 378.9235,-800.5 "/>
<text text-anchor="start" x="194.0657" y="-783.9" font-family="Times,serif" font-size="14.00" fill="#000000"># f_5 = PHI &lt;f_11(4), f_23(5)&gt;</text>
<polyline fill="none" stroke="#000000" points="186.0657,-775.7 378.9235,-775.7 "/>
<text text-anchor="start" x="194.0657" y="-759.1" font-family="Times,serif" font-size="14.00" fill="#000000">n.0_1 = n;</text>
<polyline fill="none" stroke="#000000" points="186.0657,-750.9 378.9235,-750.9 "/>
<text text-anchor="start" x="194.0657" y="-734.3" font-family="Times,serif" font-size="14.00" fill="#000000">if (i_4 &lt;= n.0_1)</text>
<text text-anchor="start" x="194.0657" y="-717.5" font-family="Times,serif" font-size="14.00" fill="#000000"> &#160;goto &lt;bb 5&gt;; [INV]</text>
<text text-anchor="start" x="194.0657" y="-700.7" font-family="Times,serif" font-size="14.00" fill="#000000">else</text>
<text text-anchor="start" x="194.0657" y="-683.9" font-family="Times,serif" font-size="14.00" fill="#000000"> &#160;goto &lt;bb 7&gt;; [INV]</text>
</g>
<!-- fn_0_basic_block_5 -->
<g id="node2" class="node">
<title>fn_0_basic_block_5</title>
<polygon fill="#d3d3d3" stroke="#000000" points="226.9961,-551.5 226.9961,-625.9 337.9931,-625.9 337.9931,-551.5 226.9961,-551.5"/>
<text text-anchor="start" x="234.9961" y="-609.3" font-family="Times,serif" font-size="14.00" fill="#000000">&lt;bb 5&gt;:</text>
<polyline fill="none" stroke="#000000" points="226.9961,-601.1 337.9931,-601.1 "/>
<text text-anchor="start" x="234.9961" y="-584.5" font-family="Times,serif" font-size="14.00" fill="#000000">f_23 = f_5 * i_4;</text>
<polyline fill="none" stroke="#000000" points="226.9961,-576.3 337.9931,-576.3 "/>
<text text-anchor="start" x="234.9961" y="-559.7" font-family="Times,serif" font-size="14.00" fill="#000000">i_24 = i_4 + 1;</text>
</g>
<!-- fn_0_basic_block_6&#45;&gt;fn_0_basic_block_5 -->
<g id="edge7" class="edge">
<title>fn_0_basic_block_6:s&#45;&gt;fn_0_basic_block_5:n</title>
<path fill="none" stroke="#000000" stroke-width="2" d="M282.4946,-675.9C282.4946,-657.4236 282.4946,-650.4228 282.4946,-635.8911"/>
<polygon fill="#000000" stroke="#000000" stroke-width="2" points="285.9947,-635.7 282.4946,-625.7 278.9947,-635.7 285.9947,-635.7"/>
</g>
<!-- fn_0_basic_block_7 -->
<g id="node8" class="node">
<title>fn_0_basic_block_7</title>
<polygon fill="#d3d3d3" stroke="#000000" points="36.8619,-538.7 36.8619,-638.7 170.1273,-638.7 170.1273,-538.7 36.8619,-538.7"/>
<text text-anchor="start" x="44.8619" y="-622.1" font-family="Times,serif" font-size="14.00" fill="#000000">&lt;bb 7&gt;:</text>
<polyline fill="none" stroke="#000000" points="36.8619,-613.9 170.1273,-613.9 "/>
<text text-anchor="start" x="44.8619" y="-597.3" font-family="Times,serif" font-size="14.00" fill="#000000">if (f_5 &gt; 10000)</text>
<text text-anchor="start" x="44.8619" y="-580.5" font-family="Times,serif" font-size="14.00" fill="#000000"> &#160;goto &lt;bb 8&gt;; [INV]</text>
<text text-anchor="start" x="44.8619" y="-563.7" font-family="Times,serif" font-size="14.00" fill="#000000">else</text>
<text text-anchor="start" x="44.8619" y="-546.9" font-family="Times,serif" font-size="14.00" fill="#000000"> &#160;goto &lt;bb 9&gt;; [INV]</text>
</g>
<!-- fn_0_basic_block_6&#45;&gt;fn_0_basic_block_7 -->
<g id="edge8" class="edge">
<title>fn_0_basic_block_6:s&#45;&gt;fn_0_basic_block_7:n</title>
<path fill="none" stroke="#000000" stroke-width="2" d="M282.4946,-675.9C282.4946,-598.4535 119.8826,-708.6614 104.6377,-648.8074"/>
<polygon fill="#000000" stroke="#000000" stroke-width="2" points="108.0963,-648.2433 103.4946,-638.7 101.1406,-649.03 108.0963,-648.2433"/>
</g>
<!-- fn_0_basic_block_5&#45;&gt;fn_0_basic_block_6 -->
<g id="edge6" class="edge">
<title>fn_0_basic_block_5:s&#45;&gt;fn_0_basic_block_6:n</title>
<path fill="none" stroke="#0000ff" stroke-width="2" stroke-dasharray="1,5" d="M282.4946,-551.7C282.4946,-527.034 317.9955,-537.2603 337.9931,-551.7 446.4504,-630.0136 473.5174,-755.3061 378.9235,-849.9 366.2571,-862.5664 307.3837,-869.0303 288.4068,-858.2929"/>
<polygon fill="#0000ff" stroke="#0000ff" stroke-width="2" points="291.1149,-856.0597 282.4946,-849.9 285.3922,-860.0909 291.1149,-856.0597"/>
</g>
<!-- fn_0_basic_block_0 -->
<g id="node3" class="node">
<title>fn_0_basic_block_0</title>
<polygon fill="#ffffff" stroke="#000000" points="110.4946,-1328.8 49.2547,-1310.8 110.4946,-1292.8 171.7346,-1310.8 110.4946,-1328.8"/>
<polyline fill="none" stroke="#000000" points="60.7676,-1314.184 60.7676,-1307.416 "/>
<polyline fill="none" stroke="#000000" points="98.9817,-1296.184 122.0076,-1296.184 "/>
<polyline fill="none" stroke="#000000" points="160.2216,-1307.416 160.2216,-1314.184 "/>
<polyline fill="none" stroke="#000000" points="122.0076,-1325.416 98.9817,-1325.416 "/>
<text text-anchor="middle" x="110.4946" y="-1306.6" font-family="Times,serif" font-size="14.00" fill="#000000">ENTRY</text>
</g>
<!-- fn_0_basic_block_1 -->
<g id="node4" class="node">
<title>fn_0_basic_block_1</title>
<polygon fill="#ffffff" stroke="#000000" points="403.4946,-52 356.5949,-34 403.4946,-16 450.3944,-34 403.4946,-52"/>
<polyline fill="none" stroke="#000000" points="367.7981,-38.2998 367.7981,-29.7002 "/>
<polyline fill="none" stroke="#000000" points="392.2914,-20.2998 414.6979,-20.2998 "/>
<polyline fill="none" stroke="#000000" points="439.1912,-29.7002 439.1912,-38.2998 "/>
<polyline fill="none" stroke="#000000" points="414.6979,-47.7002 392.2914,-47.7002 "/>
<text text-anchor="middle" x="403.4946" y="-29.8" font-family="Times,serif" font-size="14.00" fill="#000000">EXIT</text>
</g>
<!-- fn_0_basic_block_0&#45;&gt;fn_0_basic_block_1 -->
<!-- fn_0_basic_block_2 -->
<g id="node5" class="node">
<title>fn_0_basic_block_2</title>
<polygon fill="#d3d3d3" stroke="#000000" points="43.8619,-1057.1 43.8619,-1256.3 177.1273,-1256.3 177.1273,-1057.1 43.8619,-1057.1"/>
<text text-anchor="start" x="51.8619" y="-1239.7" font-family="Times,serif" font-size="14.00" fill="#000000">&lt;bb 2&gt;:</text>
<polyline fill="none" stroke="#000000" points="43.8619,-1231.5 177.1273,-1231.5 "/>
<text text-anchor="start" x="51.8619" y="-1214.9" font-family="Times,serif" font-size="14.00" fill="#000000">scanf (&quot;%d&quot;, &amp;n);</text>
<polyline fill="none" stroke="#000000" points="43.8619,-1206.7 177.1273,-1206.7 "/>
<text text-anchor="start" x="51.8619" y="-1190.1" font-family="Times,serif" font-size="14.00" fill="#000000">i_10 = 2;</text>
<polyline fill="none" stroke="#000000" points="43.8619,-1181.9 177.1273,-1181.9 "/>
<text text-anchor="start" x="51.8619" y="-1165.3" font-family="Times,serif" font-size="14.00" fill="#000000">f_11 = 1;</text>
<polyline fill="none" stroke="#000000" points="43.8619,-1157.1 177.1273,-1157.1 "/>
<text text-anchor="start" x="51.8619" y="-1140.5" font-family="Times,serif" font-size="14.00" fill="#000000">start_13 = clock ();</text>
<polyline fill="none" stroke="#000000" points="43.8619,-1132.3 177.1273,-1132.3 "/>
<text text-anchor="start" x="51.8619" y="-1115.7" font-family="Times,serif" font-size="14.00" fill="#000000">if (i_10 &lt;= 0)</text>
<text text-anchor="start" x="51.8619" y="-1098.9" font-family="Times,serif" font-size="14.00" fill="#000000"> &#160;goto &lt;bb 3&gt;; [INV]</text>
<text text-anchor="start" x="51.8619" y="-1082.1" font-family="Times,serif" font-size="14.00" fill="#000000">else</text>
<text text-anchor="start" x="51.8619" y="-1065.3" font-family="Times,serif" font-size="14.00" fill="#000000"> &#160;goto &lt;bb 4&gt;; [INV]</text>
</g>
<!-- fn_0_basic_block_0&#45;&gt;fn_0_basic_block_2 -->
<g id="edge1" class="edge">
<title>fn_0_basic_block_0:s&#45;&gt;fn_0_basic_block_2:n</title>
<path fill="none" stroke="#0000ff" stroke-width="2" d="M110.4946,-1292.8C110.4946,-1280.7667 110.4946,-1275.5021 110.4946,-1266.8531"/>
<polygon fill="#0000ff" stroke="#0000ff" stroke-width="2" points="113.9947,-1266.7 110.4946,-1256.7 106.9947,-1266.7 113.9947,-1266.7"/>
</g>
<!-- fn_0_basic_block_3 -->
<g id="node6" class="node">
<title>fn_0_basic_block_3</title>
<polygon fill="#d3d3d3" stroke="#000000" points="128.9968,-970.5 128.9968,-1020.1 435.9924,-1020.1 435.9924,-970.5 128.9968,-970.5"/>
<text text-anchor="start" x="136.9968" y="-1003.5" font-family="Times,serif" font-size="14.00" fill="#000000">&lt;bb 3&gt;:</text>
<polyline fill="none" stroke="#000000" points="128.9968,-995.3 435.9924,-995.3 "/>
<text text-anchor="start" x="136.9968" y="-978.7" font-family="Times,serif" font-size="14.00" fill="#000000">__builtin_puts (&amp;&quot;i\xe5\xb0\x8f\xe4\xba\x8e1&quot;[0]);</text>
</g>
<!-- fn_0_basic_block_2&#45;&gt;fn_0_basic_block_3 -->
<g id="edge2" class="edge">
<title>fn_0_basic_block_2:s&#45;&gt;fn_0_basic_block_3:n</title>
<path fill="none" stroke="#000000" stroke-width="2" d="M110.4946,-1056.7C110.4946,-982.3778 266.1079,-1087.2031 281.3045,-1030.3757"/>
<polygon fill="#000000" stroke="#000000" stroke-width="2" points="284.7973,-1030.6416 282.4946,-1020.3 277.8456,-1029.8203 284.7973,-1030.6416"/>
</g>
<!-- fn_0_basic_block_4 -->
<g id="node7" class="node">
<title>fn_0_basic_block_4</title>
<polygon fill="#d3d3d3" stroke="#000000" points="219.3619,-891.9 219.3619,-933.5 345.6273,-933.5 345.6273,-891.9 219.3619,-891.9"/>
<text text-anchor="start" x="227.3619" y="-916.9" font-family="Times,serif" font-size="14.00" fill="#000000">&lt;bb 4&gt;:</text>
<text text-anchor="start" x="227.3619" y="-900.1" font-family="Times,serif" font-size="14.00" fill="#000000">goto &lt;bb 6&gt;; [INV]</text>
</g>
<!-- fn_0_basic_block_2&#45;&gt;fn_0_basic_block_4 -->
<g id="edge3" class="edge">
<title>fn_0_basic_block_2:s&#45;&gt;fn_0_basic_block_4:n</title>
<path fill="none" stroke="#000000" stroke-width="2" d="M110.4946,-1056.7C110.4946,-1017.9112 94.5526,-998.8371 120.4946,-970 167.3366,-917.9306 271.2167,-998.4867 281.6462,-943.6966"/>
<polygon fill="#000000" stroke="#000000" stroke-width="2" points="285.1363,-943.9602 282.4946,-933.7 278.1614,-943.3681 285.1363,-943.9602"/>
</g>
<!-- fn_0_basic_block_3&#45;&gt;fn_0_basic_block_4 -->
<g id="edge4" class="edge">
<title>fn_0_basic_block_3:s&#45;&gt;fn_0_basic_block_4:n</title>
<path fill="none" stroke="#0000ff" stroke-width="2" d="M282.4946,-970.3C282.4946,-957.9729 282.4946,-952.652 282.4946,-943.7186"/>
<polygon fill="#0000ff" stroke="#0000ff" stroke-width="2" points="285.9947,-943.7 282.4946,-933.7 278.9947,-943.7 285.9947,-943.7"/>
</g>
<!-- fn_0_basic_block_4&#45;&gt;fn_0_basic_block_6 -->
<g id="edge5" class="edge">
<title>fn_0_basic_block_4:s&#45;&gt;fn_0_basic_block_6:n</title>
<path fill="none" stroke="#0000ff" stroke-width="2" d="M282.4946,-891.7C282.4946,-877.041 282.4946,-871.0571 282.4946,-860.0579"/>
<polygon fill="#0000ff" stroke="#0000ff" stroke-width="2" points="285.9947,-859.9 282.4946,-849.9 278.9947,-859.9 285.9947,-859.9"/>
</g>
<!-- fn_0_basic_block_8 -->
<g id="node9" class="node">
<title>fn_0_basic_block_8</title>
<polygon fill="#d3d3d3" stroke="#000000" points="185.386,-435.3 185.386,-501.7 631.6032,-501.7 631.6032,-435.3 185.386,-435.3"/>
<text text-anchor="start" x="193.386" y="-485.1" font-family="Times,serif" font-size="14.00" fill="#000000">&lt;bb 8&gt;:</text>
<polyline fill="none" stroke="#000000" points="185.386,-476.9 631.6032,-476.9 "/>
<text text-anchor="start" x="193.386" y="-460.3" font-family="Times,serif" font-size="14.00" fill="#000000">__builtin_puts (&amp;&quot;\xe8\xbe\x93\xe5\x87\xba\xe8\xb6\x85\xe9\x99\x90&quot;[0]);</text>
<text text-anchor="start" x="193.386" y="-443.5" font-family="Times,serif" font-size="14.00" fill="#000000">goto &lt;bb 10&gt;; [INV]</text>
</g>
<!-- fn_0_basic_block_7&#45;&gt;fn_0_basic_block_8 -->
<g id="edge9" class="edge">
<title>fn_0_basic_block_7:s&#45;&gt;fn_0_basic_block_8:n</title>
<path fill="none" stroke="#000000" stroke-width="2" d="M103.4946,-538.7C103.4946,-474.154 376.0474,-559.4139 405.8579,-511.2529"/>
<polygon fill="#000000" stroke="#000000" stroke-width="2" points="409.2634,-512.0669 408.4946,-501.5 402.506,-510.24 409.2634,-512.0669"/>
</g>
<!-- fn_0_basic_block_9 -->
<g id="node10" class="node">
<title>fn_0_basic_block_9</title>
<polygon fill="#d3d3d3" stroke="#000000" points="37.271,-443.7 37.271,-493.3 167.7182,-493.3 167.7182,-443.7 37.271,-443.7"/>
<text text-anchor="start" x="45.271" y="-476.7" font-family="Times,serif" font-size="14.00" fill="#000000">&lt;bb 9&gt;:</text>
<polyline fill="none" stroke="#000000" points="37.271,-468.5 167.7182,-468.5 "/>
<text text-anchor="start" x="45.271" y="-451.9" font-family="Times,serif" font-size="14.00" fill="#000000">printf (&quot;%d\n&quot;, f_5);</text>
</g>
<!-- fn_0_basic_block_7&#45;&gt;fn_0_basic_block_9 -->
<g id="edge10" class="edge">
<title>fn_0_basic_block_7:s&#45;&gt;fn_0_basic_block_9:n</title>
<path fill="none" stroke="#000000" stroke-width="2" d="M103.4946,-538.7C103.4946,-522.5308 102.8471,-516.1271 102.5942,-503.7725"/>
<polygon fill="#000000" stroke="#000000" stroke-width="2" points="106.0915,-503.4656 102.4946,-493.5 99.0918,-503.5335 106.0915,-503.4656"/>
</g>
<!-- fn_0_basic_block_10 -->
<g id="node11" class="node">
<title>fn_0_basic_block_10</title>
<polygon fill="#d3d3d3" stroke="#000000" points="36.5402,-199.9 36.5402,-398.3 770.449,-398.3 770.449,-199.9 36.5402,-199.9"/>
<text text-anchor="start" x="44.5402" y="-381.7" font-family="Times,serif" font-size="14.00" fill="#000000">&lt;bb 10&gt;:</text>
<polyline fill="none" stroke="#000000" points="36.5402,-373.5 770.449,-373.5 "/>
<text text-anchor="start" x="44.5402" y="-356.9" font-family="Times,serif" font-size="14.00" fill="#000000">end_18 = clock ();</text>
<polyline fill="none" stroke="#000000" points="36.5402,-348.7 770.449,-348.7 "/>
<text text-anchor="start" x="44.5402" y="-332.1" font-family="Times,serif" font-size="14.00" fill="#000000">_2 = end_18 &#45; start_13;</text>
<polyline fill="none" stroke="#000000" points="36.5402,-323.9 770.449,-323.9 "/>
<text text-anchor="start" x="44.5402" y="-307.3" font-family="Times,serif" font-size="14.00" fill="#000000">_3 = (double) _2;</text>
<polyline fill="none" stroke="#000000" points="36.5402,-299.1 770.449,-299.1 "/>
<text text-anchor="start" x="44.5402" y="-282.5" font-family="Times,serif" font-size="14.00" fill="#000000">time_19 = _3 / 1.0e+6;</text>
<polyline fill="none" stroke="#000000" points="36.5402,-274.3 770.449,-274.3 "/>
<text text-anchor="start" x="44.5402" y="-257.7" font-family="Times,serif" font-size="14.00" fill="#000000">printf (&quot;\xe7\xa8\x8b\xe5\xba\x8f\xe8\xbf\x90\xe8\xa1\x8c\xe6\x97\xb6\xe9\x97\xb4\xe4\xb8\xba\xef\xbc\x9a%f\n&quot;, time_19);</text>
<polyline fill="none" stroke="#000000" points="36.5402,-249.5 770.449,-249.5 "/>
<text text-anchor="start" x="44.5402" y="-232.9" font-family="Times,serif" font-size="14.00" fill="#000000">_21 = 0;</text>
<polyline fill="none" stroke="#000000" points="36.5402,-224.7 770.449,-224.7 "/>
<text text-anchor="start" x="44.5402" y="-208.1" font-family="Times,serif" font-size="14.00" fill="#000000">n ={v} {CLOBBER};</text>
</g>
<!-- fn_0_basic_block_8&#45;&gt;fn_0_basic_block_10 -->
<g id="edge11" class="edge">
<title>fn_0_basic_block_8:s&#45;&gt;fn_0_basic_block_10:n</title>
<path fill="none" stroke="#0000ff" stroke-width="2" d="M408.4946,-435.5C408.4946,-422.6604 405.5637,-417.3886 404.1899,-408.0964"/>
<polygon fill="#0000ff" stroke="#0000ff" stroke-width="2" points="407.6801,-407.833 403.4946,-398.1 400.697,-408.3188 407.6801,-407.833"/>
</g>
<!-- fn_0_basic_block_9&#45;&gt;fn_0_basic_block_10 -->
<g id="edge12" class="edge">
<title>fn_0_basic_block_9:s&#45;&gt;fn_0_basic_block_10:n</title>
<path fill="none" stroke="#0000ff" stroke-width="2" d="M102.4946,-443.5C102.4946,-379.5539 371.473,-456.3848 400.8925,-407.8362"/>
<polygon fill="#0000ff" stroke="#0000ff" stroke-width="2" points="404.2938,-408.6646 403.4946,-398.1 397.5312,-406.8572 404.2938,-408.6646"/>
</g>
<!-- fn_0_basic_block_11 -->
<g id="node12" class="node">
<title>fn_0_basic_block_11</title>
<polygon fill="#d3d3d3" stroke="#000000" points="364.5861,-88.5 364.5861,-162.9 442.4031,-162.9 442.4031,-88.5 364.5861,-88.5"/>
<text text-anchor="start" x="372.5861" y="-146.3" font-family="Times,serif" font-size="14.00" fill="#000000">&lt;bb 11&gt;:</text>
<polyline fill="none" stroke="#000000" points="364.5861,-138.1 442.4031,-138.1 "/>
<text text-anchor="start" x="372.5861" y="-121.5" font-family="Times,serif" font-size="14.00" fill="#000000">&lt;L9&gt;:</text>
<polyline fill="none" stroke="#000000" points="364.5861,-113.3 442.4031,-113.3 "/>
<text text-anchor="start" x="372.5861" y="-96.7" font-family="Times,serif" font-size="14.00" fill="#000000">return _21;</text>
</g>
<!-- fn_0_basic_block_10&#45;&gt;fn_0_basic_block_11 -->
<g id="edge13" class="edge">
<title>fn_0_basic_block_10:s&#45;&gt;fn_0_basic_block_11:n</title>
<path fill="none" stroke="#0000ff" stroke-width="2" d="M403.4946,-200.1C403.4946,-187.5035 403.4946,-182.0663 403.4946,-172.9376"/>
<polygon fill="#0000ff" stroke="#0000ff" stroke-width="2" points="406.9947,-172.7 403.4946,-162.7 399.9947,-172.7 406.9947,-172.7"/>
</g>
<!-- fn_0_basic_block_11&#45;&gt;fn_0_basic_block_1 -->
<g id="edge14" class="edge">
<title>fn_0_basic_block_11:s&#45;&gt;fn_0_basic_block_1:n</title>
<path fill="none" stroke="#000000" stroke-width="2" d="M403.4946,-88.7C403.4946,-76.3392 403.4946,-71.0038 403.4946,-62.046"/>
<polygon fill="#000000" stroke="#000000" stroke-width="2" points="406.9947,-62 403.4946,-52 399.9947,-62 406.9947,-62"/>
</g>
</g>
</svg>
